<svg width="60" height="97" viewBox="0 0 60 97" fill="none" xmlns="http://www.w3.org/2000/svg">
<path d="M10.2664 69.5172C10.2664 74.4482 7.13114 75.7399 3.87293 75.7399H0V63.4712H3.56556C7.00819 63.4712 10.2664 64.469 10.2664 69.5172ZM3.01229 65.5844V73.6263H3.99588C5.84015 73.6263 7.06964 72.8045 7.06964 69.5172C7.06964 66.2303 5.77869 65.5258 3.99588 65.5258H3.01229V65.5844Z" fill="#25BCBD"/>
<path d="M20.3478 74.1547L19.733 75.9743C18.565 75.857 17.8273 75.5634 17.3355 74.6243C16.6593 75.6807 15.5527 76.033 14.3847 76.033C12.4175 76.033 11.188 74.8002 11.188 73.0979C11.188 71.0434 12.8478 69.9279 15.7986 69.9279H16.7822V69.517C16.7822 68.4019 16.2904 68.0497 15.1224 68.0497C14.5077 68.0497 13.5241 68.2256 12.5404 68.5192L11.8642 66.6996C13.0937 66.2297 14.4462 65.9951 15.5527 65.9951C18.3806 65.9951 19.6101 67.1692 19.6101 69.3411V72.9806C19.6716 73.7438 19.856 73.9784 20.3478 74.1547ZM16.7822 73.1566V71.5129H16.0446C14.6921 71.5129 14.0773 71.9825 14.0773 72.922C14.0773 73.6852 14.5077 74.0961 15.2454 74.0961C15.9216 74.037 16.4134 73.6852 16.7822 73.1566Z" fill="#25BCBD"/>
<path d="M28.3402 66.1711L27.8484 68.8715C27.541 68.8129 27.2951 68.7542 26.9878 68.7542C25.7583 68.7542 25.2665 69.6347 24.9591 71.0434V75.6807H22.0083V66.2887H24.5902L24.8362 68.1083C25.2665 66.8169 26.2501 65.9951 27.3566 65.9951C27.7255 66.0538 27.9714 66.1124 28.3402 66.1711Z" fill="#25BCBD"/>
<path d="M39.7134 69.5172C39.7134 74.4482 36.5782 75.7399 33.32 75.7399H29.5085V63.4712H33.0741C36.5167 63.4712 39.7134 64.469 39.7134 69.5172ZM32.5208 65.5844V73.6263H33.5044C35.3487 73.6263 36.5782 72.8045 36.5782 69.5172C36.5782 66.2303 35.2872 65.5258 33.5044 65.5258H32.5208V65.5844Z" fill="#008690"/>
<path d="M50.5945 71.0433C50.5945 74.037 48.7504 76.0329 45.7995 76.0329C42.787 76.0329 41.0044 74.2133 41.0044 71.0433C41.0044 68.0496 42.8485 66.0537 45.7995 66.0537C48.7504 66.0537 50.5945 67.8733 50.5945 71.0433ZM43.9554 71.0433C43.9554 73.1565 44.5699 73.9783 45.7379 73.9783C46.9059 73.9783 47.5209 73.0979 47.5209 71.0433C47.5209 68.9301 46.9059 68.1083 45.7379 68.1083C44.5699 68.1083 43.9554 68.9887 43.9554 71.0433Z" fill="#008690"/>
<path d="M59.9379 67.1692L58.6468 68.8129C58.0322 68.3433 57.4172 68.167 56.8027 68.167C55.5116 68.167 54.8355 68.9888 54.8355 71.102C54.8355 73.2152 55.6347 73.8025 56.8027 73.8025C57.4788 73.8025 57.9707 73.5675 58.7083 73.1566L59.9994 74.9179C59.0771 75.622 58.0322 76.033 56.6796 76.033C53.6671 76.033 51.823 74.0961 51.823 71.102C51.823 68.1083 53.6671 65.9951 56.6181 65.9951C57.9707 66.0538 59.0156 66.406 59.9379 67.1692Z" fill="#008690"/>
<path d="M13.7705 79.2031V91.7064H5.77869C4.67211 91.7064 3.74999 91.6478 3.01229 91.5305C2.21311 91.4128 1.53688 91.0609 0.92213 90.4737C0.307378 89.8869 0 89.065 0 87.8323C0 87.0105 0.12295 86.13 0.430327 85.0732L3.19671 85.1905L3.07376 86.13C3.01229 86.6582 2.95081 86.9518 2.95081 87.0691C2.95081 87.48 3.13524 87.8909 3.44261 88.2432C3.74999 88.5955 4.36475 88.7714 5.22538 88.7714H10.4508V79.2031H13.7705ZM9.22127 84.8386L4.85656 85.6604L4.61065 84.6036L5.47129 84.4277C4.91802 84.0168 4.67211 83.4882 4.67211 82.8427C4.67211 82.3141 4.85656 81.8445 5.28688 81.4923C5.65574 81.0814 6.20901 80.9054 6.82374 80.9054C7.31555 80.9054 7.80736 81.0227 8.36063 81.3163L8.05327 82.6664C7.80736 82.4904 7.56146 82.4318 7.31555 82.4318C7.06964 82.4318 6.82374 82.4904 6.63933 82.6664C6.45492 82.8427 6.39342 83.0186 6.39342 83.2536C6.39342 83.6059 6.57787 83.8991 6.88523 84.0754L8.85245 83.5468L9.22127 84.8386Z" fill="#008690"/>
<path d="M25.2665 92.4108C25.1435 93.2326 24.7747 94.1131 24.0985 94.9349C23.4222 95.7568 22.4386 96.1677 20.9632 96.1677C20.1641 96.1677 18.9345 96.0504 17.3362 95.7568V92.939C19.0575 93.174 20.1641 93.2913 20.5944 93.2913C21.1477 93.2913 21.5165 93.174 21.7009 92.939C21.8853 92.7044 22.0083 92.2345 21.9468 91.6476H20.1026C18.8731 91.6476 17.9509 91.4131 17.3362 91.0021C16.7214 90.5322 16.2911 90.004 16.1067 89.4171C15.9223 88.7713 15.7993 88.0667 15.7993 87.3039C15.7993 85.8362 15.9837 84.7208 16.414 84.0166C16.8444 83.2535 17.3362 82.7839 18.0124 82.5489C18.6272 82.3139 19.4263 82.1967 20.3485 82.1967C21.2091 82.1967 22.1312 82.2553 22.9919 82.373C23.8526 82.4903 24.6517 82.6076 25.2665 82.7249V89.7694C25.4509 90.7085 25.3895 91.5304 25.2665 92.4108ZM19.6108 88.419C19.8567 88.7126 20.3485 88.8299 21.0247 88.8299H22.1927V85.1317C21.7624 85.1317 21.3936 85.073 21.0862 85.073C20.7788 85.073 20.4714 85.1317 20.2255 85.1903C19.9796 85.2494 19.7337 85.4253 19.5493 85.7189C19.3649 86.0122 19.2419 86.4821 19.2419 87.069C19.2419 87.6558 19.3649 88.1258 19.6108 88.419Z" fill="#008690"/>
<path d="M33.9346 82.9598C34.7337 83.488 35.3485 84.2512 35.7173 85.2493C36.1476 86.2471 36.3321 87.4212 36.3321 88.7712V91.6476H27.0493V88.7712H33.0739C33.0124 87.4798 32.7665 86.482 32.2132 85.8948C31.6599 85.3079 31.0452 85.0143 30.246 85.0143H28.0329L27.787 82.5488C29.2009 82.2552 30.3075 82.1379 31.0452 82.1379C32.2132 82.1966 33.1354 82.4316 33.9346 82.9598Z" fill="#008690"/>
<path d="M37.9299 96.1094V93.2916H38.2373C38.9135 93.2916 39.2824 92.8221 39.2824 91.8243V82.6079H42.5406V91.4134C42.5406 92.8807 42.2948 94.0548 41.7414 94.9353C41.1879 95.8158 40.3888 96.2267 39.3438 96.2267C39.0365 96.168 38.6062 96.168 37.9299 96.1094Z" fill="#25BCBD"/>
<path d="M44.9387 79.2031H48.197V91.7064H44.9387V79.2031Z" fill="#25BCBD"/>
<path d="M57.5406 82.9598C58.3398 83.488 58.9543 84.2512 59.3236 85.2493C59.7535 86.2471 59.9381 87.4212 59.9381 88.7712V91.6476H50.6553V88.7712H56.6799C56.6183 87.4798 56.3726 86.482 55.8192 85.8948C55.2661 85.3079 54.6512 85.0143 53.852 85.0143H51.6391L51.3929 82.5488C52.8071 82.2552 53.9135 82.1379 54.6512 82.1379C55.8192 82.1966 56.7414 82.4316 57.5406 82.9598Z" fill="#25BCBD"/>
<path d="M44.263 44.9213C44.1399 39.2272 40.144 34.4137 34.7343 32.7114C38.0539 31.1264 40.3286 27.8391 40.3286 24.0235C40.3286 18.6817 35.7794 14.2791 30.1237 14.2791C24.5294 14.2791 19.9187 18.623 19.9187 24.0235C19.9187 27.8978 22.3163 31.3025 25.8204 32.8288C20.8409 34.5311 17.1524 38.9335 16.722 44.2168C14.8778 44.3931 13.4639 46.154 13.4639 48.2086V50.9086C13.4639 52.0241 14.3245 52.9046 15.3696 52.9046H15.9229C16.4147 52.9046 16.7835 52.5523 16.7835 52.0827C16.7835 51.6132 16.4147 51.2609 15.9229 51.2609H15.3696C15.3081 51.2609 15.2466 51.1436 15.2466 50.9086V48.2086C15.2466 46.9758 16.1073 45.8604 17.0909 45.8604H18.8737C19.8573 45.8604 20.7179 46.9172 20.7179 48.2086V50.9086C20.7179 51.085 20.595 51.2023 20.595 51.2609H19.9187C19.427 51.2609 19.0581 51.6132 19.0581 52.0827C19.0581 52.5523 19.427 52.9046 19.9187 52.9046H20.595C21.6401 52.9046 22.5007 52.0241 22.5007 50.9086V48.2086C22.5007 45.9777 20.9024 44.2168 18.9352 44.2168H18.6278C19.1811 38.4053 24.345 33.768 30.6154 33.768C37.1318 33.768 42.4188 38.6989 42.6031 44.8626C41.1893 45.2149 40.144 46.3886 40.144 47.8563C40.144 49.5586 41.6197 50.9677 43.4022 50.9677C45.1852 50.9677 46.6605 49.5586 46.6605 47.8563C46.4759 46.5063 45.554 45.3322 44.263 44.9213ZM21.763 24.0235C21.763 19.5622 25.5745 15.9814 30.1851 15.9814C34.7958 15.9814 38.6072 19.5622 38.6072 24.0235C38.6072 28.4848 34.7958 32.0656 30.1851 32.0656C25.5745 32.0656 21.763 28.4848 21.763 24.0235ZM43.2792 49.265C42.48 49.265 41.8039 48.6195 41.8039 47.8563C41.8039 47.0931 42.48 46.4476 43.2792 46.4476C44.0783 46.4476 44.7548 47.0931 44.7548 47.8563C44.6933 48.6195 44.0783 49.265 43.2792 49.265Z" fill="#008690"/>
<path d="M20.5331 53.1397H19.8569C19.2421 53.1397 18.7503 52.6701 18.7503 52.0829C18.7503 51.4961 19.2421 51.0265 19.8569 51.0265H20.3487C20.3487 51.0265 20.3487 50.9678 20.3487 50.9088V48.2088C20.3487 47.0933 19.611 46.0955 18.7503 46.0955H16.9675C16.1069 46.0955 15.3692 47.0347 15.3692 48.2088V50.9088C15.3692 50.9678 15.3692 50.9678 15.3692 51.0265H15.7995C16.4143 51.0265 16.9061 51.4961 16.9061 52.0829C16.9061 52.6701 16.4143 53.1397 15.7995 53.1397H15.3692C14.2012 53.1397 13.2791 52.1416 13.2791 50.9088V48.2088C13.2791 46.0955 14.693 44.3342 16.5372 44.041C17.029 39.0514 20.4102 34.7074 25.2667 32.8289C21.8856 31.1266 19.7339 27.7219 19.7339 24.0237C19.7339 18.5057 24.406 14.0444 30.1847 14.0444C35.9634 14.0444 40.6356 18.5057 40.6356 24.0237C40.6356 27.6045 38.6068 30.8918 35.3486 32.6528C40.6972 34.5313 44.3238 39.3446 44.5084 44.7455C45.8611 45.2151 46.7214 46.4478 46.7214 47.7978C46.7214 49.6174 45.1846 51.0851 43.2789 51.0851C41.3733 51.0851 39.8365 49.6174 39.8365 47.7978C39.8365 46.3301 40.8198 45.0387 42.2955 44.6278C41.9263 38.6991 36.824 34.0029 30.4921 34.0029C24.529 34.0029 19.4266 38.3468 18.8118 43.9823H18.8733C20.9634 43.9823 22.6847 45.8606 22.6847 48.2088V50.9088C22.6847 52.1416 21.7011 53.1397 20.5331 53.1397ZM19.9183 51.4374C19.5495 51.4374 19.2421 51.7306 19.2421 52.0829C19.2421 52.4352 19.5495 52.7288 19.9183 52.7288H20.5946C21.5167 52.7288 22.2544 51.907 22.2544 50.9088V48.2088C22.2544 46.0955 20.7175 44.3932 18.8733 44.3932H18.32V44.1583C18.8733 38.2294 24.2216 33.5333 30.4921 33.5333C37.1314 33.5333 42.4797 38.5228 42.7255 44.8628V45.0387L42.5413 45.0974C41.1887 45.391 40.2668 46.5651 40.2668 47.8565C40.2668 49.4415 41.619 50.7329 43.2789 50.7329C44.9388 50.7329 46.2914 49.4415 46.2914 47.8565C46.2914 46.6237 45.4922 45.5669 44.2627 45.156L44.0781 45.0974V44.9214C43.955 39.4036 40.2053 34.59 34.7339 32.8876L34.1806 32.7115L34.6724 32.4767C38.0536 30.833 40.1437 27.6045 40.1437 23.965C40.1437 18.7405 35.656 14.4553 30.1847 14.4553C24.7134 14.4553 20.2257 18.7405 20.2257 23.965C20.2257 27.6632 22.5003 31.0091 26.0044 32.5941L26.4962 32.8289L25.9429 33.005C20.902 34.7074 17.3979 39.11 16.9675 44.1583V44.3342H16.7831C15.0618 44.5105 13.7094 46.1542 13.7094 48.0915V50.7915C13.7094 51.7897 14.4471 52.6115 15.3692 52.6115H15.9225C16.2913 52.6115 16.5987 52.3179 16.5987 51.9656C16.5987 51.6134 16.2913 51.3197 15.9225 51.3197H15.3692H15.3077C15.1848 51.2611 15.0618 51.0851 15.0618 50.7915V48.0915C15.0618 46.6824 15.984 45.567 17.0905 45.567H18.8733C19.9798 45.567 20.902 46.741 20.902 48.0915V50.7915C20.902 51.0265 20.779 51.2611 20.7175 51.3197L20.6561 51.3788H19.9183V51.4374ZM43.2789 49.4415C42.3567 49.4415 41.619 48.737 41.619 47.8565C41.619 46.976 42.3567 46.2715 43.2789 46.2715C44.2012 46.2715 44.9388 46.976 44.9388 47.8565C44.9388 48.737 44.2012 49.4415 43.2789 49.4415ZM43.2789 46.6824C42.6028 46.6824 42.0494 47.2106 42.0494 47.8565C42.0494 48.5024 42.6028 49.0306 43.2789 49.0306C43.955 49.0306 44.5084 48.5024 44.5084 47.8565C44.5084 47.2106 43.955 46.6824 43.2789 46.6824ZM30.1847 32.3006C25.3896 32.3006 21.5167 28.6024 21.5167 24.0237C21.5167 19.4449 25.3896 15.7468 30.1847 15.7468C34.9798 15.7468 38.8527 19.4449 38.8527 24.0237C38.8527 28.6024 34.9183 32.3006 30.1847 32.3006ZM30.1847 16.2164C25.6355 16.2164 22.0085 19.7384 22.0085 24.0237C22.0085 28.3089 25.697 31.831 30.1847 31.831C34.7339 31.831 38.3609 28.3089 38.3609 24.0237C38.3609 19.7384 34.6724 16.2164 30.1847 16.2164Z" fill="#008690"/>
<path d="M59.6308 27.7218L50.4099 18.9166V5.53261C50.4099 4.88692 49.8564 4.3586 49.1803 4.3586H40.512C39.8359 4.3586 39.2827 4.88692 39.2827 5.53261V8.35028L30.8606 0.308183C30.3688 -0.102728 29.6311 -0.102728 29.1393 0.308183L0.368851 27.7218C0.12295 27.9566 0 28.2501 0 28.6023C0 28.8958 0.12295 29.1893 0.368851 29.4242C0.614754 29.6589 0.922129 29.7763 1.22951 29.7763H6.02456V56.0747C6.02456 56.7202 6.57787 57.2488 7.25409 57.2488H52.7459C53.422 57.2488 53.9754 56.7202 53.9754 56.0747V29.7763H58.7705C59.0777 29.7763 59.385 29.6589 59.6308 29.4242C59.8769 29.1893 60 28.8958 60 28.6023C59.9385 28.2501 59.8154 27.9566 59.6308 27.7218ZM52.7459 27.4283C52.0694 27.4283 51.5163 27.9566 51.5163 28.6023V54.9006H8.48359V28.6023C8.48359 27.9566 7.93032 27.4283 7.25409 27.4283H4.18033L29.9999 2.77365L39.713 12.0485C40.2048 12.5181 41.0039 12.5181 41.4958 12.0485C41.6189 11.9311 41.68 11.8137 41.7416 11.6963C41.8647 10.17 41.9262 8.58509 41.8647 7.05885V6.76535H47.9508V19.5036C47.9508 19.7971 48.0735 20.0906 48.3196 20.3254L55.758 27.4283H52.7459Z" fill="#25BCBD"/>
</svg>
